<svg width="42" height="42" viewBox="0 0 42 42" fill="none" xmlns="http://www.w3.org/2000/svg">
<path d="M38.0625 0H3.9375C1.77188 0 0 1.77188 0 3.9375V38.0625C0 40.2281 1.77188 42 3.9375 42H38.0625C40.2281 42 42 40.2281 42 38.0625V3.9375C42 1.77188 40.2281 0 38.0625 0ZM15.75 34.125H10.5V15.75H15.75V34.125ZM13.125 13.125C11.6734 13.125 10.5 11.9516 10.5 10.5C10.5 9.04838 11.6734 7.875 13.125 7.875C14.5766 7.875 15.75 9.04838 15.75 10.5C15.75 11.9516 14.5766 13.125 13.125 13.125ZM34.125 34.125H28.875V23.625C28.875 22.1734 27.7016 21 26.25 21C24.7984 21 23.625 22.1734 23.625 23.625V34.125H18.375V15.75H23.625V19.0063C24.7078 17.5219 26.3642 15.75 28.2188 15.75C31.4842 15.75 34.125 18.6874 34.125 22.3125V34.125Z" fill="#30485E"/>
</svg>
