<svg width="50" height="50" viewBox="0 0 50 50" fill="none" xmlns="http://www.w3.org/2000/svg">
<circle cx="25" cy="25" r="23.5" fill="#07283F" stroke="#6D8095" stroke-width="3"/>
<path d="M19.3089 34V16.5455H25.4112C26.6271 16.5455 27.63 16.7557 28.4197 17.1761C29.2095 17.5909 29.7976 18.1506 30.1839 18.8551C30.5703 19.554 30.7635 20.3295 30.7635 21.1818C30.7635 21.9318 30.63 22.5511 30.3629 23.0398C30.1016 23.5284 29.755 23.9148 29.3232 24.1989C28.897 24.483 28.4339 24.6932 27.9339 24.8295V25C28.468 25.0341 29.005 25.2216 29.5447 25.5625C30.0845 25.9034 30.5362 26.392 30.8999 27.0284C31.2635 27.6648 31.4453 28.4432 31.4453 29.3636C31.4453 30.2386 31.2464 31.0256 30.8487 31.7244C30.451 32.4233 29.8232 32.9773 28.9652 33.3864C28.1072 33.7955 26.9908 34 25.6158 34H19.3089ZM21.4226 32.125H25.6158C26.9964 32.125 27.9766 31.858 28.5561 31.3239C29.1413 30.7841 29.4339 30.1307 29.4339 29.3636C29.4339 28.7727 29.2834 28.2273 28.9822 27.7273C28.6811 27.2216 28.2521 26.8182 27.6953 26.517C27.1385 26.2102 26.4794 26.0568 25.718 26.0568H21.4226V32.125ZM21.4226 24.2159H25.343C25.9794 24.2159 26.5533 24.0909 27.0646 23.8409C27.5817 23.5909 27.9908 23.2386 28.2919 22.7841C28.5987 22.3295 28.7521 21.7955 28.7521 21.1818C28.7521 20.4148 28.4851 19.7642 27.951 19.2301C27.4169 18.6903 26.5703 18.4205 25.4112 18.4205H21.4226V24.2159Z" fill="white"/>
</svg>
